<svg xmlns="http://www.w3.org/2000/svg" width="64" height="64" viewBox="0 0 512 512" fill="none">
<g clip-path="url(#clip0)">
<path d="M315.999 458.458C345.854 448.926 373.939 432.316 397.627 408.629C415.261 390.995 428.972 370.924 438.761 349.5M192.166 458.458C162.312 448.926 134.228 432.316 110.541 408.629C90.8642 388.952 76.0711 366.24 66.162 342M63.1508 196C72.9631 168.825 88.7597 143.325 110.541 121.543C128.95 103.135 150.014 89.0014 172.5 79.142M437.278 177.5C427.605 157.267 414.387 138.304 397.627 121.543C380.268 104.185 360.548 90.6269 339.5 80.8701" stroke="#3578E5" stroke-width="15" stroke-linecap="square" stroke-linejoin="round"/>
<mask id="path-2-inside-1" fill="white">
<rect x="4" y="216" width="98" height="98" rx="7"/>
</mask>
<rect x="4" y="216" width="98" height="98" rx="7" fill="white" stroke="#3578E5" stroke-width="30" mask="url(#path-2-inside-1)"/>
<path d="M446.5 322L390 265.5L446.5 209L503 265.5L446.5 322Z" fill="white" stroke="#3578E5" stroke-width="15" stroke-linecap="round" stroke-linejoin="round"/>
<rect x="208.5" y="10.5" width="95" height="96" rx="47.5" fill="white" stroke="#3578E5" stroke-width="15"/>
<path d="M206.682 495.75L256 410.922L305.318 495.75H206.682Z" fill="white" stroke="#3578E5" stroke-width="15"/>
<path d="M252.444 329.587L252.356 329.574L252.268 329.57C218.264 327.748 190.639 299.506 190.639 264.603C190.639 240.932 203.836 219.969 222.937 208.569V240.821C222.937 244.223 225.819 246.576 228.692 246.576H231.821C235.116 246.576 237.576 244.116 237.576 240.821V190.755C237.576 187.882 235.223 185 231.821 185L181.755 185C180.166 185 178.744 185.774 177.759 186.759C176.774 187.744 176 189.166 176 190.755L176 193.884C176 197.285 178.882 199.639 181.755 199.639L209.824 199.639C189.524 214.231 176 237.779 176 264.603C176 307.26 209.651 342.23 251.67 344.2C253.408 344.414 254.941 343.762 256.001 342.64C257.05 341.53 257.603 340.006 257.603 338.451V335.322C257.603 332.419 255.589 330.036 252.444 329.587ZM259.075 199.932L259.163 199.945L259.252 199.949C293.555 201.771 320.567 229.999 320.567 264.603C320.567 288.641 307.871 309.625 288.269 320.998V288.384C288.269 285.512 285.915 282.63 282.514 282.63H279.384C277.795 282.63 276.373 283.404 275.389 284.389C274.404 285.373 273.63 286.795 273.63 288.384V338.451C273.63 341.852 276.512 344.206 279.384 344.206H329.451C332.746 344.206 335.206 341.746 335.206 338.451V335.322C335.206 332.449 332.852 329.567 329.451 329.567H301.789C322.009 315.194 335.206 291.644 335.206 264.603C335.206 222.264 301.874 187.29 259.849 185.319C256.33 184.882 253.603 187.874 253.603 191.068V194.197C253.603 197.31 256.157 199.515 259.075 199.932Z" fill="#3578E5" stroke="#3578E5" stroke-width="4"/>
</g>
<defs>
<clipPath id="clip0">
<rect width="512" height="512" fill="white" transform="translate(0 0.000488281)"/>
</clipPath>
</defs>
</svg>