
<svg fill="none" viewBox="0 0 512 512" height="64" width="64" xmlns="http://www.w3.org/2000/svg">
<rect x="7.5" y="7.5" width="497" height="497" rx="38.5" stroke="#3578E5" stroke-width="15"/>
<rect x="146" y="338" width="166" height="74" rx="11" stroke="#3578E5" stroke-width="10"/>
<rect x="312" y="310" width="130" height="130" rx="21" stroke="#3578E5" stroke-width="10"/>
<rect x="358" y="338" width="38" height="75" rx="19" stroke="#3578E5" stroke-width="10"/>
<rect x="348" y="372" width="59" height="41" rx="8" fill="white" stroke="#3578E5" stroke-width="10"/>
<path d="M0 75H512" stroke="#3578E5" stroke-width="10"/>
<rect x="33" y="34" width="20" height="20" rx="10" fill="#3578E5"/>
<rect x="65" y="34" width="20" height="20" rx="10" fill="#3578E5"/>
<rect x="97" y="34" width="20" height="20" rx="10" fill="#3578E5"/>
<circle cx="256" cy="213" r="79" stroke="#3578E5" stroke-width="10"/>
<path d="M307 269C307 235.311 289.689 217 256 217C222.311 217 205 235.311 205 269" stroke="#3578E5" stroke-width="10"/>
<circle cx="256" cy="196" r="37" fill="white" stroke="#3578E5" stroke-width="10"/>
<path d="M184 257.5H141.5L86 257.5L86 276.75L86 296L86 376H141.5" stroke="#3578E5" stroke-width="15" stroke-linecap="square" stroke-linejoin="round" stroke-dasharray="0 30 50 0"/>
<path d="M176 376H284.5" stroke="#3578E5" stroke-width="15" stroke-linecap="square" stroke-dasharray="90 90"/>
</svg>