
<svg xmlns="http://www.w3.org/2000/svg" width="64" height="64" viewBox="0 0 512 512" fill="none">
<path d="M99 184V198.5H109V184H99ZM87 210.5H23.5V220.5H87V210.5ZM403 184V198.5H413V184H403ZM425 220.5H489.5V210.5H425V220.5ZM403 198.5C403 210.65 412.85 220.5 425 220.5V210.5C418.373 210.5 413 205.127 413 198.5H403ZM99 198.5C99 205.127 93.6274 210.5 87 210.5V220.5C99.1503 220.5 109 210.65 109 198.5H99Z" fill="#3578E5"/>
<path fill-rule="evenodd" clip-rule="evenodd" d="M257.685 22C226.995 22 201.592 40.107 191.575 67.3552C190.49 70.3063 187.679 72.2674 184.535 72.2674C177.542 72.2674 169.697 75.0013 162.794 79.6945C155.878 84.3963 150.615 90.5824 148.222 96.6675C147.094 99.5362 144.325 101.422 141.243 101.422C114.669 101.422 95 120.236 95 146.703C95 159.872 100.174 169.372 108.309 175.758C116.658 182.312 128.694 186 142.735 186H369.5C383.534 186 395.633 182.136 404.056 175.39C412.298 168.79 417.5 159.08 417.5 146C417.5 122.711 396.603 102.5 369.5 102.5C365.358 102.5 362 99.1421 362 95C362 90.8579 365.358 87.5 369.5 87.5C403.701 87.5 432.5 113.289 432.5 146C432.5 163.571 425.278 177.612 413.433 187.098C401.769 196.44 386.117 201 369.5 201H142.735C126.271 201 110.69 196.697 99.0468 187.557C87.1907 178.249 80 164.35 80 146.703C80 113.204 104.325 88.8245 136.402 86.5899C140.522 78.9681 147.014 72.2841 154.36 67.2898C161.727 62.2814 170.448 58.6345 179.338 57.5796C192.636 26.9489 222.511 7 257.685 7C297.385 7 330.73 34.0879 340.737 70.8398C341.825 74.8364 339.467 78.9585 335.47 80.0467C331.474 81.1349 327.352 78.7772 326.263 74.7806C317.964 44.3004 290.356 22 257.685 22Z" fill="#3578E5"/>
<path d="M170.5 196V214.173C170.5 220.253 167.253 225.87 161.985 228.904L91.5 269.5M220 196V228.815C220 233.7 217.898 238.35 214.231 241.577L182.5 269.5M292 196V228.681C292 233.644 294.169 238.359 297.937 241.588L330.5 269.5M341.5 196V214.364C341.5 220.341 344.639 225.879 349.768 228.95L417.5 269.5M256 196V317" stroke="#3578E5" stroke-width="10" stroke-linecap="round" stroke-linejoin="round"/>
<circle cx="23" cy="215" r="17" fill="white" stroke="#3578E5" stroke-width="12"/>
<circle cx="91" cy="269" r="17" fill="white" stroke="#3578E5" stroke-width="12"/>
<circle cx="179" cy="269" r="17" fill="white" stroke="#3578E5" stroke-width="12"/>
<circle cx="329" cy="269" r="17" fill="white" stroke="#3578E5" stroke-width="12"/>
<circle cx="417" cy="269" r="17" fill="white" stroke="#3578E5" stroke-width="12"/>
<circle cx="489" cy="215" r="17" fill="white" stroke="#3578E5" stroke-width="12"/>
<path d="M166 320L346 320C351.523 320 356 324.477 356 330L356 388.5L356 447C356 452.523 351.523 457 346 457L325.31 457L277.207 457L191.345 457L166 457C160.477 457 156 452.523 156 447L156 388.5L156 330C156 324.477 160.477 320 166 320Z" stroke="#3578E5" stroke-width="10" stroke-linecap="round" stroke-linejoin="round"/>
<path d="M287 457C288.748 472.373 295.341 486.041 305 496" stroke="#3578E5" stroke-width="10"/>
<path d="M226 457C224.155 472.373 217.196 486.041 207 496" stroke="#3578E5" stroke-width="10"/>
<path d="M196 490H316C323.455 490 329.72 495.099 331.496 502H256H180.504C182.28 495.099 188.545 490 196 490Z" fill="white" stroke="#3578E5" stroke-width="8" stroke-linejoin="round"/>
</svg>